<svg width="289" height="253" viewBox="0 0 289 253" fill="none" xmlns="http://www.w3.org/2000/svg">
<path d="M92.1639 177.134L81.3739 132.176L71.9328 115.092L51.7017 88.1176L46.7563 70.1344V52.1512L35.9664 28.7731L12.1387 10.3403M92.1639 177.134V155.555L96.2101 132.176L92.1639 107.899L89.4664 89.9159M92.1639 177.134L101.155 140.269L109.248 115.092M89.4664 89.9159L81.3739 78.2269M89.4664 89.9159L92.1639 70.1344M81.3739 78.2269L64.7395 70.1344H31.021L12.1387 84.521M81.3739 78.2269L71.9328 55.7479L64.7395 36.8655V24.2773L51.7017 10.3403M109.248 115.092L121.836 95.7605M109.248 115.092L130.378 107.899M121.836 95.7605L160.95 84.521H188.374H228.836L254.462 89.9159L277.84 99.3571M121.836 95.7605L130.378 78.2269L149.71 70.1344L172.639 66.0882H206.357L233.332 70.1344M92.1639 70.1344L84.9706 52.1512L89.4664 36.8655L96.2101 28.7731L109.248 24.2773H130.378L146.563 28.7731M92.1639 70.1344L96.2101 55.7479L109.248 45.4076L138.021 49.0042M138.021 49.0042L169.042 55.7479L188.374 52.1512L216.697 49.0042M138.021 49.0042L169.042 45.4076L188.374 36.8655" stroke="#834A4A" stroke-width="10"/>
<ellipse cx="138.92" cy="21.5798" rx="11.2395" ry="4.4958" fill="#6C9D2D"/>
<ellipse cx="150.609" cy="26.0756" rx="11.2395" ry="4.4958" fill="#6C9D2D"/>
<ellipse cx="182.979" cy="35.0672" rx="11.2395" ry="4.4958" fill="#6C9D2D"/>
<ellipse cx="194.668" cy="39.563" rx="11.2395" ry="4.4958" fill="#6C9D2D"/>
<ellipse cx="171.739" cy="39.1134" rx="4.4958" ry="3.14706" fill="#6C9D2D"/>
<ellipse cx="187.925" cy="30.1218" rx="4.4958" ry="3.14706" fill="#6C9D2D"/>
<ellipse cx="224.474" cy="53.4675" rx="17.5812" ry="5.52949" transform="rotate(-175.392 224.474 53.4675)" fill="#6C9D2D"/>
<ellipse cx="206.693" cy="46.487" rx="17.5812" ry="5.52949" transform="rotate(-175.392 206.693 46.487)" fill="#6C9D2D"/>
<ellipse cx="242.398" cy="49.9194" rx="7.03247" ry="3.87064" transform="rotate(-175.392 242.398 49.9194)" fill="#6C9D2D"/>
<ellipse cx="216.274" cy="58.9088" rx="7.03247" ry="3.87064" transform="rotate(-175.392 216.274 58.9088)" fill="#6C9D2D"/>
<ellipse cx="270.595" cy="98.3621" rx="17.5812" ry="5.52949" transform="rotate(2.8001 270.595 98.3621)" fill="#6C9D2D"/>
<ellipse cx="252.511" cy="90.9027" rx="17.5812" ry="5.52949" transform="rotate(2.8001 252.511 90.9027)" fill="#6C9D2D"/>
<ellipse cx="252.792" cy="102.474" rx="7.03247" ry="3.87064" transform="rotate(2.8001 252.792 102.474)" fill="#6C9D2D"/>
<ellipse cx="230.205" cy="88.7306" rx="7.03247" ry="3.87064" transform="rotate(2.8001 230.205 88.7306)" fill="#6C9D2D"/>
<ellipse cx="238.233" cy="82.0329" rx="7.03247" ry="2.56633" transform="rotate(2.8001 238.233 82.0329)" fill="#6C9D2D"/>
<ellipse cx="278.619" cy="92.6648" rx="7.03247" ry="3.87064" transform="rotate(2.8001 278.619 92.6648)" fill="#6C9D2D"/>
<ellipse rx="16.0293" ry="5.52949" transform="matrix(-0.998806 -0.0488514 -0.0488514 0.998806 244.504 68.1856)" fill="#6C9D2D"/>
<ellipse rx="16.0293" ry="5.52949" transform="matrix(-0.998806 -0.0488514 -0.0488514 0.998806 227.583 72.8941)" fill="#6C9D2D"/>
<ellipse rx="6.41172" ry="3.87064" transform="matrix(-0.998806 -0.0488514 -0.0488514 0.998806 245.77 75.2128)" fill="#6C9D2D"/>
<ellipse rx="6.41172" ry="3.87064" transform="matrix(-0.998806 -0.0488514 -0.0488514 0.998806 237.756 61.766)" fill="#6C9D2D"/>
<ellipse cx="172.639" cy="43.6092" rx="10.7899" ry="3.14706" fill="#6C9D2D"/>
<ellipse cx="146.113" cy="45.4076" rx="6.7437" ry="3.14706" fill="#6C9D2D"/>
<ellipse cx="221.643" cy="65.189" rx="6.7437" ry="3.14706" fill="#6C9D2D"/>
<ellipse cx="54.3994" cy="9.44117" rx="15.7353" ry="9.44117" fill="#6C9D2D"/>
<ellipse cx="12.1387" cy="10.7899" rx="12.1387" ry="4.4958" fill="#6C9D2D"/>
<ellipse cx="28.3235" cy="23.3781" rx="12.1387" ry="4.4958" fill="#6C9D2D"/>
<ellipse cx="28.7731" cy="17.9832" rx="8.09243" ry="4.4958" fill="#6C9D2D"/>
<ellipse cx="15.2855" cy="82.7226" rx="8.09243" ry="4.4958" fill="#6C9D2D"/>
<ellipse cx="29.6723" cy="79.126" rx="8.09243" ry="4.4958" fill="#6C9D2D"/>
<ellipse cx="115.542" cy="21.1302" rx="13.0378" ry="5.84454" fill="#6C9D2D"/>
<ellipse cx="128.13" cy="29.6723" rx="13.0378" ry="6.29412" fill="#6C9D2D"/>
<path d="M158.252 165.445H91.2648H28.7732V195.118H35.9665L56.6471 252.664H133.076L152.857 186.126H158.252V165.445Z" fill="#7B7B7B"/>
</svg>
